<svg xmlns="http://www.w3.org/2000/svg" xmlns:xlink="http://www.w3.org/1999/xlink" width="816" zoomAndPan="magnify" viewBox="0 0 612 791.999994" height="1056" preserveAspectRatio="xMidYMid meet" version="1.0"><path fill="#673ab7" d="M 612 617 C 612 663.953125 573.953125 702 527 702 L 85 702 C 38.0625 702 0 663.953125 0 617 L 0 175 C 0 128.046875 38.0625 90 85 90 L 527 90 C 573.953125 90 612 128.046875 612 175 Z M 612 617 " fill-opacity="1" fill-rule="nonzero"/><path fill="#ffffff" d="M 459.511719 423.199219 C 448.460938 407.898438 432.480469 397.359375 411.910156 391.75 C 411.910156 391.75 429.25 385.460938 444.890625 362 C 454.238281 347.039062 459 329.019531 459 307.941406 C 459 271.390625 445.738281 243.339844 419.21875 224.128906 C 392.699219 204.921875 362.78125 192 311.949219 192 L 153 192 L 153 600 L 330.308594 600 C 378.421875 599.660156 414.628906 589.289062 439.28125 569.398438 C 463.761719 549.171875 476 519.25 476 479.300781 C 476 457.199219 470.558594 438.5 459.511719 423.199219 Z M 255 260 C 255 260 325.890625 260 327.25 260 C 353.089844 260 374 280.910156 374 306.75 C 374 332.589844 353.089844 353.5 327.25 353.5 C 325.890625 353.5 255 353.5 255 353.5 Z M 340 532 L 255 532 L 255 430 L 340 430 C 368.21875 430 391 452.78125 391 481 C 391 509.21875 368.21875 532 340 532 Z M 340 532 " fill-opacity="1" fill-rule="nonzero"/></svg>