<svg xmlns="http://www.w3.org/2000/svg" xmlns:xlink="http://www.w3.org/1999/xlink" width="816" zoomAndPan="magnify" viewBox="0 0 612 791.999994" height="1056" preserveAspectRatio="xMidYMid meet" version="1.0"><path fill="#e44d26" d="M 55.558594 673.753906 L -0.171875 48.785156 L 612.171875 48.785156 L 556.398438 673.667969 L 305.609375 743.148438 Z M 55.558594 673.753906 " fill-opacity="1" fill-rule="nonzero"/><path fill="#f16529" d="M 508.632812 633.867188 L 556.3125 99.886719 L 306 99.886719 L 306 690.050781 Z M 508.632812 633.867188 " fill-opacity="1" fill-rule="nonzero"/><path fill="#ebebeb" d="M 305.738281 176.527344 L 113.761719 176.527344 L 134.445312 408.324219 L 306 408.324219 L 306 331.679688 L 204.5625 331.679688 L 197.554688 253.191406 L 306 253.191406 L 306 176.527344 Z M 306 530.492188 L 305.675781 530.578125 L 220.296875 507.535156 L 214.871094 446.40625 L 137.875 446.40625 L 148.617188 566.753906 L 305.652344 610.152344 L 306 610.042969 Z M 306 530.492188 " fill-opacity="1" fill-rule="nonzero"/><path fill="#ffffff" d="M 305.738281 408.324219 L 400.144531 408.324219 L 391.464844 507.707031 L 305.957031 530.773438 L 305.957031 610.519531 L 463.125 566.96875 L 484.175781 331.636719 L 306 331.636719 Z M 495.9375 197.101562 L 497.761719 176.527344 L 305.695312 176.527344 L 305.695312 253.171875 L 490.859375 253.171875 L 492.378906 235.941406 Z M 495.9375 197.101562 " fill-opacity="1" fill-rule="nonzero"/></svg>