<svg xmlns="http://www.w3.org/2000/svg" xmlns:xlink="http://www.w3.org/1999/xlink" width="816" zoomAndPan="magnify" viewBox="0 0 612 791.999994" height="1056" preserveAspectRatio="xMidYMid meet" version="1.0"><path fill="#ffd600" d="M 0 90 L 612 90 L 612 702 L 0 702 Z M 0 90 " fill-opacity="1" fill-rule="nonzero"/><path fill="#000001" d="M 400.144531 548.097656 C 411.910156 567.207031 424.695312 585.515625 451.773438 585.515625 C 474.519531 585.515625 486.453125 574.210938 486.453125 558.570312 C 486.453125 539.855469 474.113281 533.207031 449.089844 522.308594 L 435.371094 516.460938 C 395.777344 499.664062 369.445312 478.621094 369.445312 434.164062 C 369.445312 393.195312 400.808594 362.015625 449.820312 362.015625 C 484.722656 362.015625 509.796875 374.105469 527.882812 405.757812 L 485.144531 433.078125 C 475.746094 416.28125 465.578125 409.667969 449.820312 409.667969 C 433.738281 409.667969 423.554688 419.816406 423.554688 433.078125 C 423.554688 449.464844 433.753906 456.09375 457.300781 466.242188 L 471.019531 472.09375 C 517.683594 491.964844 544 512.261719 544 557.890625 C 544 607.054688 505.171875 634 453.050781 634 C 402.066406 634 373.117188 608.414062 357 576.742188 Z M 203.183594 549.492188 C 211.785156 564.894531 224.859375 576.742188 243.660156 576.742188 C 261.648438 576.742188 272 569.636719 272 542.011719 L 272 362 L 328.660156 362 L 328.660156 550.71875 C 328.660156 607.957031 295.460938 634 246.976562 634 C 203.167969 634 171.546875 604.316406 158.660156 576.742188 Z M 203.183594 549.492188 " fill-opacity="1" fill-rule="nonzero"/></svg>