<svg xmlns="http://www.w3.org/2000/svg" xmlns:xlink="http://www.w3.org/1999/xlink" width="816" zoomAndPan="magnify" viewBox="0 0 612 791.999994" height="1056" preserveAspectRatio="xMidYMid meet" version="1.0"><defs><clipPath id="id1"><path d="M 0 130.164062 L 81 130.164062 L 81 450 L 0 450 Z M 0 130.164062 " clip-rule="nonzero"/></clipPath><clipPath id="id2"><path d="M 372 130.164062 L 453 130.164062 L 453 450 L 372 450 Z M 372 130.164062 " clip-rule="nonzero"/></clipPath><clipPath id="id3"><path d="M 0 130.164062 L 227 130.164062 L 227 370 L 0 370 Z M 0 130.164062 " clip-rule="nonzero"/></clipPath><clipPath id="id4"><path d="M 226 130.164062 L 453 130.164062 L 453 370 L 226 370 Z M 226 130.164062 " clip-rule="nonzero"/></clipPath><clipPath id="id5"><path d="M 385 422 L 612 422 L 612 661.914062 L 385 661.914062 Z M 385 422 " clip-rule="nonzero"/></clipPath></defs><g clip-path="url(#id1)"><path fill="#29b6f6" d="M 0.289062 130.164062 L 80.042969 183.335938 L 80.042969 449.210938 L 0.289062 396.039062 Z M 0.289062 130.164062 " fill-opacity="1" fill-rule="nonzero"/></g><path fill="#0288d1" d="M 611.710938 329.570312 L 531.957031 382.742188 L 531.957031 555.5625 L 611.710938 502.386719 Z M 611.710938 329.570312 " fill-opacity="1" fill-rule="nonzero"/><path fill="#0288d1" d="M 611.710938 143.457031 L 531.957031 196.632812 L 531.957031 289.6875 L 611.710938 236.511719 Z M 611.710938 143.457031 " fill-opacity="1" fill-rule="nonzero"/><g clip-path="url(#id2)"><path fill="#0288d1" d="M 452.207031 130.164062 L 372.457031 183.335938 L 372.457031 449.210938 L 452.207031 396.039062 Z M 452.207031 130.164062 " fill-opacity="1" fill-rule="nonzero"/></g><g clip-path="url(#id3)"><path fill="#29b6f6" d="M 0.289062 223.21875 L 226.25 369.449219 L 226.25 276.394531 L 0.289062 130.164062 Z M 0.289062 223.21875 " fill-opacity="1" fill-rule="nonzero"/></g><g clip-path="url(#id4)"><path fill="#0288d1" d="M 452.207031 223.21875 L 226.25 369.449219 L 226.25 276.394531 L 452.207031 130.164062 Z M 452.207031 223.21875 " fill-opacity="1" fill-rule="nonzero"/></g><path fill="#0288d1" d="M 452.207031 409.332031 L 226.25 555.5625 L 226.25 462.507812 L 452.207031 316.273438 Z M 452.207031 409.332031 " fill-opacity="1" fill-rule="nonzero"/><g clip-path="url(#id5)"><path fill="#0288d1" d="M 611.710938 515.679688 L 385.75 661.914062 L 385.75 568.855469 L 611.710938 422.625 Z M 611.710938 515.679688 " fill-opacity="1" fill-rule="nonzero"/></g><path fill="#29b6f6" d="M 385.75 565.730469 L 226.25 462.507812 L 226.25 555.5625 L 385.75 658.789062 Z M 385.75 565.730469 " fill-opacity="1" fill-rule="nonzero"/></svg>