<svg xmlns="http://www.w3.org/2000/svg" xmlns:xlink="http://www.w3.org/1999/xlink" width="816" zoomAndPan="magnify" viewBox="0 0 612 791.999994" height="1056" preserveAspectRatio="xMidYMid meet" version="1.0"><path fill="#00d8ff" d="M 502.773438 300.347656 C 496.449219 298.164062 489.890625 296.101562 483.113281 294.152344 C 484.234375 289.617188 485.261719 285.144531 486.167969 280.746094 C 501.03125 208.519531 491.320312 150.332031 458.089844 131.171875 C 426.214844 112.804688 374.113281 131.957031 321.484375 177.746094 C 316.425781 182.148438 311.34375 186.808594 306.285156 191.695312 C 302.898438 188.460938 299.535156 185.339844 296.171875 182.351562 C 241.011719 133.394531 185.730469 112.757812 152.535156 131.972656 C 120.703125 150.394531 111.277344 205.09375 124.675781 273.546875 C 125.96875 280.15625 127.480469 286.910156 129.1875 293.773438 C 121.363281 295.996094 113.8125 298.363281 106.585938 300.878906 C 41.921875 323.417969 0.628906 358.742188 0.628906 395.386719 C 0.628906 433.214844 44.960938 471.1875 112.308594 494.207031 C 117.621094 496.019531 123.136719 497.738281 128.820312 499.359375 C 126.976562 506.777344 125.375 514.050781 124.023438 521.160156 C 111.253906 588.421875 121.226562 641.828125 152.972656 660.121094 C 185.761719 679.035156 240.796875 659.597656 294.382812 612.777344 C 298.628906 609.078125 302.875 605.144531 307.121094 601.039062 C 312.65625 606.335938 318.167969 611.367188 323.628906 616.089844 C 375.542969 660.742188 426.8125 678.773438 458.519531 660.433594 C 491.273438 641.46875 501.9375 584.082031 488.101562 514.289062 C 487.050781 508.949219 485.8125 503.507812 484.449219 497.976562 C 488.316406 496.832031 492.109375 495.636719 495.808594 494.421875 C 565.828125 471.214844 611.371094 433.742188 611.371094 395.386719 C 611.371094 358.609375 568.738281 323.046875 502.773438 300.347656 Z M 487.601562 469.664062 C 484.261719 470.761719 480.824219 471.832031 477.339844 472.859375 C 469.613281 448.410156 459.1875 422.386719 446.398438 395.507812 C 458.589844 369.269531 468.609375 343.589844 476.125 319.285156 C 482.375 321.09375 488.433594 323 494.28125 325.007812 C 550.796875 344.464844 585.269531 373.230469 585.269531 395.386719 C 585.269531 418.976562 548.054688 449.628906 487.601562 469.664062 Z M 462.503906 519.347656 C 468.632812 550.210938 469.492188 578.117188 465.4375 599.941406 C 461.8125 619.550781 454.488281 632.621094 445.445312 637.84375 C 426.191406 648.984375 385.039062 634.503906 340.664062 596.316406 C 335.558594 591.929688 330.429688 587.253906 325.300781 582.316406 C 342.5 563.496094 359.703125 541.625 376.496094 517.320312 C 406.007812 514.71875 433.898438 510.425781 459.210938 504.582031 C 460.449219 509.617188 461.546875 514.527344 462.503906 519.347656 Z M 208.855469 635.914062 C 190.050781 642.566406 175.074219 642.757812 166.019531 637.535156 C 146.753906 626.417969 138.746094 583.53125 149.667969 526.027344 C 150.921875 519.441406 152.410156 512.667969 154.128906 505.75 C 179.144531 511.285156 206.835938 515.269531 236.429688 517.652344 C 253.332031 541.433594 271.035156 563.28125 288.855469 582.410156 C 284.96875 586.179688 281.078125 589.757812 277.214844 593.121094 C 253.523438 613.847656 229.78125 628.542969 208.855469 635.914062 Z M 120.757812 469.519531 C 90.976562 459.335938 66.382812 446.121094 49.523438 431.667969 C 34.375 418.714844 26.730469 405.835938 26.730469 395.386719 C 26.730469 373.15625 59.882812 344.789062 115.179688 325.511719 C 121.890625 323.171875 128.914062 320.96875 136.203125 318.898438 C 143.847656 343.753906 153.871094 369.746094 165.972656 396.007812 C 153.714844 422.675781 143.546875 449.078125 135.828125 474.242188 C 130.632812 472.738281 125.601562 471.164062 120.757812 469.519531 Z M 150.289062 268.535156 C 138.808594 209.890625 146.433594 165.652344 165.617188 154.546875 C 186.046875 142.722656 231.226562 159.582031 278.835938 201.859375 C 281.890625 204.5625 284.945312 207.386719 288.019531 210.3125 C 270.273438 229.363281 252.738281 251.050781 235.984375 274.6875 C 207.261719 277.347656 179.765625 281.621094 154.484375 287.347656 C 152.898438 280.957031 151.488281 274.675781 150.289062 268.535156 Z M 413.71875 333.574219 C 407.679688 323.140625 401.476562 312.949219 395.15625 303.035156 C 414.648438 305.5 433.304688 308.769531 450.839844 312.769531 C 445.589844 329.636719 439.03125 347.269531 431.300781 365.359375 C 425.765625 354.832031 419.894531 344.230469 413.71875 333.574219 Z M 306.289062 228.957031 C 318.335938 241.992188 330.382812 256.542969 342.242188 272.335938 C 330.289062 271.769531 318.191406 271.476562 306.003906 271.476562 C 293.929688 271.476562 281.929688 271.765625 270.050781 272.320312 C 281.90625 256.675781 294.074219 242.140625 306.289062 228.957031 Z M 198.171875 333.753906 C 192.136719 344.21875 186.386719 354.765625 180.929688 365.332031 C 173.335938 347.316406 166.835938 329.601562 161.527344 312.492188 C 178.953125 308.597656 197.535156 305.40625 216.894531 302.992188 C 210.480469 312.996094 204.226562 323.257812 198.171875 333.753906 Z M 217.453125 489.628906 C 197.449219 487.410156 178.585938 484.378906 161.164062 480.585938 C 166.558594 463.175781 173.203125 445.09375 180.960938 426.679688 C 186.429688 437.246094 192.203125 447.789062 198.277344 458.285156 C 204.464844 468.972656 210.875 479.417969 217.453125 489.628906 Z M 307.003906 563.640625 C 294.644531 550.308594 282.3125 535.542969 270.265625 519.679688 C 281.953125 520.132812 293.882812 520.371094 306.003906 520.371094 C 318.457031 520.371094 330.765625 520.085938 342.863281 519.5625 C 330.980469 535.710938 318.957031 550.496094 307.003906 563.640625 Z M 431.539062 425.75 C 439.699219 444.355469 446.59375 462.339844 452.054688 479.464844 C 434.351562 483.496094 415.21875 486.742188 395.085938 489.175781 C 401.429688 479.132812 407.679688 468.757812 413.835938 458.09375 C 420.0625 447.3125 425.957031 436.507812 431.539062 425.75 Z M 391.21875 445.070312 C 381.675781 461.625 371.871094 477.414062 361.921875 492.324219 C 343.816406 493.609375 325.089844 494.277344 306.003906 494.277344 C 286.988281 494.277344 268.5 493.707031 250.703125 492.539062 C 240.347656 477.4375 230.339844 461.601562 220.855469 445.214844 C 211.394531 428.875 202.6875 412.394531 194.796875 396.007812 C 202.683594 379.597656 211.371094 363.089844 220.777344 346.785156 L 220.773438 346.785156 C 230.207031 330.4375 240.132812 314.667969 250.390625 299.652344 C 268.546875 298.277344 287.179688 297.5625 306.003906 297.5625 C 324.921875 297.5625 343.554688 298.285156 361.707031 299.667969 C 371.824219 314.574219 381.675781 330.289062 391.148438 346.644531 C 400.714844 363.1875 409.519531 379.574219 417.460938 395.648438 C 409.542969 411.988281 400.761719 428.542969 391.21875 445.070312 Z M 445.042969 153.765625 C 465.511719 165.558594 473.457031 213.113281 460.597656 275.472656 C 459.785156 279.453125 458.855469 283.503906 457.851562 287.613281 C 432.515625 281.765625 405.007812 277.417969 376.214844 274.714844 C 359.417969 250.820312 342.027344 229.101562 324.5625 210.292969 C 329.261719 205.78125 333.964844 201.476562 338.613281 197.414062 C 383.703125 158.183594 425.859375 142.695312 445.042969 153.765625 Z M 306.003906 340.847656 C 336.109375 340.847656 360.539062 365.253906 360.539062 395.378906 C 360.539062 425.480469 336.109375 449.90625 306.003906 449.90625 C 275.894531 449.90625 251.464844 425.480469 251.464844 395.378906 C 251.464844 365.253906 275.894531 340.847656 306.003906 340.847656 Z M 306.003906 340.847656 " fill-opacity="1" fill-rule="nonzero"/></svg>