<svg xmlns="http://www.w3.org/2000/svg" xmlns:xlink="http://www.w3.org/1999/xlink" width="816" zoomAndPan="magnify" viewBox="0 0 612 791.999994" height="1056" preserveAspectRatio="xMidYMid meet" version="1.0"><defs><clipPath id="id1"><path d="M 128 130.164062 L 445 130.164062 L 445 556 L 128 556 Z M 128 130.164062 " clip-rule="nonzero"/></clipPath><clipPath id="id2"><path d="M 221 289 L 581 289 L 581 661.914062 L 221 661.914062 Z M 221 289 " clip-rule="nonzero"/></clipPath><clipPath id="id3"><path d="M 22 382 L 448 382 L 448 661.914062 L 22 661.914062 Z M 22 382 " clip-rule="nonzero"/></clipPath></defs><g clip-path="url(#id1)"><path fill="#7e57c2" d="M 288.054688 130.164062 C 200.105469 130.164062 128.554688 226.808594 128.554688 345.585938 C 128.554688 409.851562 149.582031 467.476562 182.757812 506.921875 C 182.121094 509.753906 181.722656 512.664062 181.722656 515.679688 C 181.722656 537.707031 199.574219 555.5625 221.597656 555.5625 C 243.621094 555.5625 261.472656 537.707031 261.472656 515.679688 C 261.472656 493.652344 243.621094 475.800781 221.597656 475.800781 C 217.410156 475.800781 213.464844 476.625 209.675781 477.820312 C 184.460938 445.636719 168.429688 398.363281 168.429688 345.585938 C 168.429688 248.796875 222.089844 170.042969 288.054688 170.042969 C 339.054688 170.042969 382.574219 217.195312 399.757812 283.28125 C 414.671875 287.878906 429.492188 293.675781 444.019531 300.667969 C 428.667969 203.382812 364.601562 130.164062 288.054688 130.164062 Z M 288.054688 130.164062 " fill-opacity="1" fill-rule="nonzero"/></g><g clip-path="url(#id2)"><path fill="#7e57c2" d="M 454.296875 343.980469 C 401.832031 312.179688 342.992188 298.222656 292.375 304.644531 C 285.066406 295.589844 274.007812 289.6875 261.472656 289.6875 C 239.449219 289.6875 221.597656 307.539062 221.597656 329.570312 C 221.597656 351.597656 239.449219 369.449219 261.472656 369.449219 C 278.378906 369.449219 292.75 358.882812 298.542969 344.03125 C 339.988281 338.992188 389.085938 351.089844 433.625 378.105469 C 518.734375 429.695312 562.15625 518.605469 530.417969 576.328125 C 519.425781 596.320312 500.03125 610.519531 474.351562 617.40625 C 443.96875 625.527344 407.800781 622.644531 371.648438 610.386719 C 360.496094 620.648438 348.402344 630.300781 335.429688 639.207031 C 369.347656 654.054688 404.492188 661.859375 437.363281 661.859375 C 453.84375 661.859375 469.765625 659.90625 484.667969 655.917969 C 521.097656 646.171875 549.011719 625.289062 565.359375 595.535156 C 607.269531 519.351562 557.4375 406.5 454.296875 343.980469 Z M 454.296875 343.980469 " fill-opacity="1" fill-rule="nonzero"/></g><g clip-path="url(#id3)"><path fill="#7e57c2" d="M 447.554688 462.398438 C 447.554688 440.4375 429.707031 422.625 407.679688 422.625 C 385.65625 422.625 367.804688 440.4375 367.804688 462.398438 C 367.804688 471.292969 370.835938 479.429688 375.78125 486.050781 C 358.78125 523.296875 326.015625 560.054688 281.914062 586.789062 C 230.542969 617.949219 173.121094 629.355469 128.328125 617.390625 C 102.648438 610.503906 83.257812 596.308594 72.265625 576.3125 C 49.644531 535.183594 65.339844 478.257812 106.957031 430.242188 C 102.664062 415.035156 99.488281 399.136719 97.574219 382.71875 C 30.183594 446.488281 3.082031 533.242188 37.335938 595.535156 C 53.683594 625.289062 81.597656 646.171875 118.027344 655.917969 C 132.929688 659.90625 148.839844 661.859375 165.332031 661.859375 C 209.808594 661.859375 258.46875 647.660156 302.585938 620.914062 C 353.570312 590.007812 391.414062 546.773438 411.695312 501.777344 C 431.804688 499.742188 447.554688 482.992188 447.554688 462.398438 Z M 447.554688 462.398438 " fill-opacity="1" fill-rule="nonzero"/></g></svg>